<svg width="56" height="56" viewBox="0 0 56 56" fill="none" xmlns="http://www.w3.org/2000/svg">
<path d="M28 36.75C32.8325 36.75 36.75 32.8325 36.75 28C36.75 23.1675 32.8325 19.25 28 19.25C23.1675 19.25 19.25 23.1675 19.25 28C19.25 32.8325 23.1675 36.75 28 36.75Z" stroke="black" stroke-width="2" stroke-miterlimit="10"/>
<path d="M37.625 7.875H18.375C12.576 7.875 7.875 12.576 7.875 18.375V37.625C7.875 43.424 12.576 48.125 18.375 48.125H37.625C43.424 48.125 48.125 43.424 48.125 37.625V18.375C48.125 12.576 43.424 7.875 37.625 7.875Z" stroke="black" stroke-width="2" stroke-linecap="round" stroke-linejoin="round"/>
<path d="M39.375 19.25C40.8247 19.25 42 18.0747 42 16.625C42 15.1753 40.8247 14 39.375 14C37.9253 14 36.75 15.1753 36.75 16.625C36.75 18.0747 37.9253 19.25 39.375 19.25Z" fill="black"/>
</svg>
