<svg width="56" height="56" viewBox="0 0 56 56" fill="none" xmlns="http://www.w3.org/2000/svg">
<path d="M19.25 29.5033L38.9194 46.8124C39.1469 47.0127 39.4226 47.1504 39.7194 47.2121C40.0163 47.2737 40.324 47.2572 40.6125 47.1642C40.901 47.0712 41.1604 46.9048 41.3653 46.6813C41.5702 46.4579 41.7135 46.1851 41.7812 45.8896L50.0092 9.98557C50.0804 9.67514 50.0654 9.35119 49.9661 9.04862C49.8667 8.74604 49.6866 8.47632 49.4453 8.26852C49.204 8.06072 48.9105 7.92272 48.5965 7.86938C48.2825 7.81605 47.96 7.8494 47.6636 7.96585L7.29175 23.8262C6.9399 23.9644 6.64227 24.2129 6.44339 24.5344C6.24452 24.8558 6.15509 25.2331 6.18849 25.6096C6.22189 25.9862 6.37632 26.3418 6.62868 26.6233C6.88104 26.9047 7.21775 27.0969 7.58844 27.171L19.25 29.5033Z" stroke="black" stroke-width="2" stroke-linecap="round" stroke-linejoin="round"/>
<path d="M19.25 29.5033L49.0246 7.99948" stroke="black" stroke-width="2" stroke-linecap="round" stroke-linejoin="round"/>
<path d="M29.0734 38.1479L22.2374 44.9839C21.9927 45.2287 21.6809 45.3953 21.3414 45.4629C21.0019 45.5304 20.6501 45.4957 20.3303 45.3633C20.0105 45.2308 19.7372 45.0065 19.5449 44.7187C19.3526 44.4309 19.25 44.0926 19.25 43.7465V29.5033" stroke="black" stroke-width="2" stroke-linecap="round" stroke-linejoin="round"/>
</svg>
